Patient4_TMGait_0pt2_02_right_08_EMG.mot
version=1
nRows=13
nColumns=33
inDegrees=no
endheader
time	1LAddLong	2LGlutMax	3LGlutMed	4LIliopsoas	5LSemiMemb	6LBicFemLong	7LRecFem	8LVastMed	9LVastLat	10LGasMed	11LTibAnt	12lTibPost	13LPeroneusLong	14LSol	15LExtDigLong	16LFlexDigLong	17RAddLong	18RGlutMax	19RGlutMed	20RIliopsoas	21RSemiMemb	22RBicFemLong	23RRecFem	24RVastMed	25RVastLat	26RGasMed	27RTibAnt	28RTibPost	29RPeroneusLong	30RSol	31RExtDigLong	32RFlexDigLong
17.677	-0.026703	-0.013123	-0.028534	0.014343	0.032349	-0.1738	-0.048523	-0.001678	0.024414	-0.022125	0.036011	0.005798	0.003357	0.16983	-0.052032	-0.13901	-0.006714	0.015564	-0.3125	0.23163	0.069275	-0.085144	0.022736	0.090027	0.054169	-0.006256	0.038605	0.00061	0.2153	0.14511	-0.002747	-0.006714
17.678	0.046539	-0.041962	-0.034027	0.001221	0.08667	0.067444	-0.025482	0.003967	0.010223	-0.010376	0.10727	0.010071	-0.032043	0.027618	-0.30197	-0.52597	-0.019684	0.066986	-0.18097	0.25467	0.003815	-0.050201	-0.000305	0.18707	0.037994	-0.004272	0.072632	-0.000458	0.00824	0.063934	-0.00061	-0.007477
17.679	0.015106	-0.038147	-0.041962	0.017548	0.088654	0.1944	-0.008087	0.011749	0.009308	-0.006256	0.09552	0.002136	-0.059052	-0.063934	0.006256	0.93857	-0.0177	0.073547	0.14435	0.083618	-0.041046	-0.025635	0.067291	0.37659	0.00885	0.003052	0.089874	0.000916	-0.4657	0.089111	0.002289	-0.014648
17.68	-0.014038	-0.006866	-0.054779	0.014801	-0.013733	0.2124	-0.032501	0.006561	0.008392	-0.002441	-0.050354	0.007782	-0.061951	-0.080719	-0.16388	0.076447	-0.016327	-0.022888	0.046082	-0.031433	-0.024872	0.13077	0.051575	0.2533	-0.003204	0.005951	0.083008	-0.000763	-0.59692	0.013275	-0.00061	-0.016785
17.681	-0.016937	-0.010529	-0.04364	0.001984	-0.11993	0.035706	-0.042267	0.006714	0.037537	0.004578	-0.24475	0.006866	-0.047607	0.005646	-0.078735	0.045624	-0.024109	0.004272	-0.28702	-0.016785	-0.001068	0.29495	0.084381	0.057068	-0.016327	0.009918	0.084686	0.000305	0.45685	-0.092926	-0.002441	-0.012512
17.682	-0.014343	0.00946	-0.023804	0.006409	-0.15366	-0.59067	-0.06012	0.001526	0.046539	0.010681	-0.10361	0.00473	-0.044861	0.11902	-0.26581	0.43579	-0.028992	0.065918	-0.27206	0.091705	0.05188	0.24887	0.13062	-0.11704	-0.00351	0.018005	0.14603	0.00061	-0.007324	-0.17212	-0.001373	-0.011902
17.683	0.013733	0.0177	0.016785	0.001984	-0.094299	-0.6694	-0.062866	-0.004883	0.041809	0.018921	-0.063934	0.003815	-0.045776	0.14435	-0.1471	-0.76385	-0.012512	0.13046	-0.23422	0.19821	0.045929	0.19241	0.13092	-0.041962	0.048218	0.008087	0.21912	-0.000153	0.028229	-0.007324	-0.004578	-0.009155
17.684	0.044098	0.020294	-0.00351	0.000305	-0.061646	-0.71472	-0.066833	-0.004425	0.041199	0.030518	-0.060577	0.000763	0.000153	-0.083313	-0.079498	-0.019379	-0.005798	0.071869	-0.67093	0.13702	0.011902	0.066986	0.070648	-0.11887	0.06958	-0.004578	0.057678	-0.009003	1.0518	0.14282	0.000763	-0.015259
17.685	0.021515	-0.029449	-0.011902	0.000153	0.083008	-0.40741	-0.017853	0.00351	0.003662	0.021667	-0.036011	0.007935	-0.017395	-0.064392	0.019379	0.013275	-0.003357	0.072479	-0.49286	0.080261	-0.12009	-0.036926	0.069122	0.01358	0.15854	0.001373	-0.1384	-0.009308	0.55084	-0.035706	-0.002441	-0.003357
17.686	0.02655	-0.037537	-0.026398	0.010376	0.15625	-0.17425	0.00473	0.00824	-0.019684	-0.005188	0.017853	0.00351	-0.020599	0.015869	0.11383	-0.14038	0.005341	0.024414	0.12436	-0.014954	-0.12741	0.012665	-0.014801	0.7544	0.52841	-0.00473	-0.12817	-0.003052	-0.27863	-0.098419	-0.00412	-0.013733
17.687	0.013885	0.016785	-0.032196	0.007019	0.12054	0.044098	0.003052	0.010529	0.003204	0.010376	0.041962	0.006561	-0.031128	-0.027924	0.13519	0.069275	0	0.055847	1.0732	-0.063782	-0.15595	0.019836	-0.032959	0.57251	0.77957	-0.012817	-0.036774	0.001221	-2.2621	-0.2507	0.007935	-0.006561
17.688	-0.022736	0.007324	-0.059509	0.009918	0.10864	0.18616	-0.015259	0.011139	-0.00061	0.014343	-0.019836	0.011444	-0.001221	-0.24628	0.10269	0.083313	-0.017548	0.011444	0.68771	-0.026245	0.037079	-0.05249	-0.11353	0.056	0.61829	-0.016327	0.11902	0.00824	-2.1492	-0.289	-0.002289	-0.00061
17.689	0.000305	0.009155	-0.093384	0.004883	0.072479	0.26062	-0.031586	0.008698	0.006866	0.023804	-0.033264	0.009308	-0.049591	-0.24826	0.068359	0.20248	-0.013733	0.07309	-0.077972	-0.051117	0.24338	-0.22736	0.018158	-0.63919	0.24246	-0.014648	0.074921	0.011597	0.46982	-0.17899	-0.001984	-0.002594
